<svg width="105" height="17" viewBox="0 0 105 17" fill="none" xmlns="http://www.w3.org/2000/svg">
<path d="M18.608 17H7.784C6.616 17 5.56 16.784 4.616 16.352C3.672 15.92 2.856 15.32 2.168 14.552C1.496 13.784 0.976 12.896 0.608 11.888C0.24 10.864 0.0560001 9.768 0.0560001 8.6C0.0560001 7.448 0.24 6.368 0.608 5.36C0.976 4.336 1.496 3.44 2.168 2.672C2.856 1.888 3.672 1.28 4.616 0.847999C5.56 0.415999 6.616 0.199999 7.784 0.199999H18.608V2.6H7.784C6.68 2.6 5.728 2.872 4.928 3.416C4.144 3.944 3.536 4.664 3.104 5.576C2.672 6.488 2.456 7.496 2.456 8.6C2.456 9.704 2.672 10.712 3.104 11.624C3.536 12.52 4.144 13.24 4.928 13.784C5.728 14.328 6.68 14.6 7.784 14.6H16.208V9.8H6.032V7.4H18.608V17ZM40.9012 12.2C40.9012 13.08 40.6292 13.888 40.0852 14.624C39.5572 15.344 38.8372 15.92 37.9252 16.352C37.0132 16.784 36.0052 17 34.9012 17H21.4852V14.6H34.9012C35.5572 14.6 36.1572 14.496 36.7012 14.288C37.2452 14.064 37.6772 13.768 37.9972 13.4C38.3332 13.032 38.5012 12.632 38.5012 12.2V11H27.4852C26.3812 11 25.3732 10.728 24.4612 10.184C23.5652 9.64 22.8452 8.92 22.3012 8.024C21.7572 7.112 21.4852 6.104 21.4852 5V0.199999H23.8852V5C23.8852 5.656 24.0452 6.264 24.3652 6.824C24.6852 7.368 25.1172 7.8 25.6612 8.12C26.2212 8.44 26.8292 8.6 27.4852 8.6H38.5012V0.199999H40.9012V12.2ZM56.8932 17H54.4933V8.6C54.4933 7.496 54.2213 6.488 53.6773 5.576C53.1493 4.664 52.4293 3.944 51.5173 3.416C50.6053 2.872 49.5973 2.6 48.4933 2.6H47.1973V17H44.7973V0.199999H48.4933C50.0133 0.199999 51.4053 0.575999 52.6693 1.328C53.9493 2.08 54.9573 3.064 55.6933 4.28C56.4293 3.064 57.4293 2.08 58.6933 1.328C59.9733 0.575999 61.3733 0.199999 62.8933 0.199999H66.5893V17H64.1893V2.6H62.8933C61.7893 2.6 60.7813 2.872 59.8693 3.416C58.9733 3.944 58.2533 4.664 57.7093 5.576C57.1653 6.488 56.8932 7.496 56.8932 8.6V17Z" fill="white"/>
<path d="M85.2894 17H69.6894V12.2C69.6894 11.32 69.9054 10.52 70.3374 9.8C70.7694 9.064 71.3454 8.48 72.0654 8.048C72.8014 7.616 73.6094 7.4 74.4894 7.4H80.4894C81.1454 7.4 81.7054 7.168 82.1694 6.704C82.6494 6.224 82.8894 5.656 82.8894 5C82.8894 4.344 82.6494 3.784 82.1694 3.32C81.7054 2.84 81.1454 2.6 80.4894 2.6H70.8894V0.199999H80.4894C81.3694 0.199999 82.1694 0.415999 82.8894 0.847999C83.6254 1.28 84.2094 1.864 84.6414 2.6C85.0734 3.32 85.2894 4.12 85.2894 5C85.2894 5.88 85.0734 6.688 84.6414 7.424C84.2094 8.144 83.6254 8.72 82.8894 9.152C82.1694 9.584 81.3694 9.8 80.4894 9.8H74.4894C73.8334 9.8 73.2654 10.04 72.7854 10.52C72.3054 10.984 72.0654 11.544 72.0654 12.2V14.6H85.2894V17ZM87.4991 0.199999H89.8991V6.2C89.8991 6.856 90.1311 7.424 90.5951 7.904C91.0751 8.368 91.6431 8.6 92.2991 8.6H101.899V0.199999H104.299V17H101.899V11H92.2991C91.4191 11 90.6111 10.784 89.8751 10.352C89.1551 9.92 88.5791 9.344 88.1471 8.624C87.7151 7.888 87.4991 7.08 87.4991 6.2V0.199999Z" fill="#FAFF00"/>
</svg>
